<svg xmlns="http://www.w3.org/2000/svg" width="182" viewBox="0 0 136.5 36.75" height="49" version="1.0"><defs><clipPath id="a"><path d="M.21.703H22V23H.21Zm0 0"/></clipPath><clipPath id="b"><path d="M24 .703h22V23H24Zm0 0"/></clipPath><clipPath id="c"><path d="M83 .703h17V22H83Zm0 0"/></clipPath><clipPath id="d"><path d="M119 1h16.79v4H119Zm0 0"/></clipPath><clipPath id="e"><path d="M.21 29H61v7.5H.21Zm0 0"/></clipPath></defs><g clip-path="url(#a)"><path fill="#fff334" d="M8.117 1.05C4.48 1.935 1.555 4.806.465 8.57c-.512 1.832-.203 6.18.543 7.793.613 1.344 1.972 3.157 2.894 3.875.848.653 2.516 1.477 3.809 1.86 1.566.445 4.594.445 6.293-.016 4.422-1.207 7.656-5.312 7.723-9.836.035-2.914-.954-4.582-3.301-5.598-.715-.3-1.192-.367-2.45-.367-1.359 0-1.699.067-3.027.582-3.094 1.235-4.594 3.133-4.863 6.059-.137 1.816-.102 2.004.543 2.414.375.226.953.434 1.226.434.817 0 1.122-.516 1.497-2.403.375-1.988 1.02-2.87 2.484-3.36 1.289-.433 2.074-.433 2.957 0 2.723 1.395 1.055 6.345-2.754 8.079-2.484 1.11-5.988.676-7.86-.965-1.699-1.504-2.382-3.129-2.382-5.555 0-3.738 1.941-6.18 5.648-7.101.543-.133 1.192-.445 1.465-.692.918-.878.305-2.925-.922-3.02-.27-.015-1.086.122-1.87.298Zm0 0"/></g><g clip-path="url(#b)"><path fill="#fff334" d="M32.238 1.117c-2.722.79-4.523 2.14-6.054 4.516-1.942 3.074-1.942 8.82 0 11.87 1.53 2.384 3.332 3.727 6.054 4.513 1.836.527 4.387.554 6.293.054 2.758-.718 5.375-2.93 6.77-5.691.886-1.777.886-7.848 0-9.621-1.395-2.766-4.012-4.977-6.77-5.696-1.906-.5-4.457-.472-6.293.055Zm4.899 3.54c3.504.84 5.34 3.265 5.308 6.976 0 3.851-2.144 6.355-5.886 6.98-2.075.34-4.422-.297-5.918-1.64-3.028-2.684-3.063-8.172-.036-10.785 1.02-.895 1.633-1.192 3.063-1.547 1.293-.325 2.11-.325 3.469.015Zm0 0"/></g><g clip-path="url(#c)"><path fill="#fcfbf3" d="M88.813 1.105c-1.395.418-2.485 1.11-3.606 2.29-1.703 1.804-1.77 2.222-1.941 10.015-.168 7.723-.067 8.36 1.293 8.524 1.836.23 2.347-.57 2.347-3.66 0-1.72.137-2.504.41-2.614.235-.098 1.29-.164 2.38-.164 2.62 0 3.163-.297 3.163-1.762 0-1.464-.543-1.761-3.164-1.761-1.09 0-2.144-.067-2.379-.16-.613-.247-.546-3.825.133-4.989.684-1.219 2.246-2.168 3.504-2.168 1.531 0 2.621.637 3.676 2.102.476.703.578 1.734.68 7.586.066 4.336.238 6.914.476 7.144.442.434 1.156.567 2.008.38 1.293-.274 1.43-1.29 1.258-8.321-.168-7.2-.375-8.133-2.176-10.18-1.055-1.164-2.145-1.828-3.813-2.289-1.632-.45-2.652-.45-4.25.027Zm0 0"/></g><path fill="#fcfbf3" d="M53.398 1.227c-5.207.5-6.84 8.347-2.312 11.125 1.121.68 2.754.976 5.34.976 1.191 0 2.039.067 2.347.203.954.367 1.43 1.207 1.395 2.371-.035 1.246-.68 2.059-1.805 2.305-.37.066-2.414.137-4.523.137-2.11 0-4.016.054-4.254.105-1.223.313-1.395 2.551-.27 3.242l.579.336 4.695-.054c4.488-.04 4.762-.055 5.613-.38 1.223-.445 2.313-1.34 3.094-2.507.816-1.203.918-5.258.172-6.434-.715-1.086-1.907-2.09-3.063-2.562-.953-.395-1.191-.422-3.539-.422-2.176 0-2.586-.04-3.23-.309-.953-.406-1.567-1.695-1.258-2.71.473-1.708.918-1.86 5.406-1.86 4.492 0 4.457.016 4.457-1.855 0-1.801-.035-1.801-4.726-1.79-1.907.016-3.743.044-4.118.083ZM65.71 1.32c-1.085.434-1.085 2.36-.03 3.024.476.312.578.312 7.789.312h7.312l.547-.34c1.121-.691.918-2.75-.34-3.074-.207-.054-3.605-.11-7.586-.11-5.851 0-7.28.04-7.691.188ZM103.676 1.5c-.817.5-.817 2.3 0 2.805.578.336.715.351 3.812.351 3.028 0 3.23.012 3.88.352 2.073 1.058 2.038 3.644-.036 4.824-.613.352-.816.379-2.992.379-2.11 0-2.45.043-3.164.351-1.805.762-2.043 1.41-2.211 5.692-.137 4.23.101 5.355 1.289 5.613.851.188 1.566.055 2.008-.379.203-.218.41-1.804.445-3.77.102-3.128.168-3.44.746-3.698.442-.192 1.055-.286 1.938-.286 2.28 0 3.164.301 4.254 1.422.136.153.34 1.668.44 3.364.204 2.859.24 3.117.853 3.293.816.23.953.23 1.769 0 .613-.192.645-.395.645-3.836 0-3.82-.27-4.715-1.872-6.004-.578-.461-.578-.516.07-1.489.848-1.355 1.192-4.011.614-5.382-.547-1.329-1.805-2.696-2.996-3.266-1.191-.543-2.55-.703-6.09-.703-2.687 0-2.824.012-3.402.367Zm0 0"/><g clip-path="url(#d)"><path fill="#fcfbf3" d="M119.871 1.363c-.75.336-.851 2.344-.172 2.871l.578.422h14.903l.578-.422c.816-.636.578-2.64-.34-2.914-.547-.148-2.18-.187-7.895-.187-6.293 0-7.246.027-7.652.23Zm0 0"/></g><path fill="#fcfbf3" d="M72.074 7.84c-.375.379-.476 1.57-.476 6.816 0 4.215.136 6.492.375 6.778.476.554 1.597.703 2.379.308.921-.46 1.023-1.3.921-7.668-.105-6.465-.171-6.707-1.87-6.707-.614 0-.954.121-1.329.473ZM126.332 7.73c-.61.504-.883 12.118-.305 13.254.41.801.989 1.086 1.973.961 1.363-.175 1.43-.511 1.43-7.273 0-5.57-.067-6.563-.512-6.899-.68-.53-1.902-.543-2.586-.043Zm0 0"/><g fill="#fcfbf3" clip-path="url(#e)"><path d="M3.463 36.142c-.512 0-.969-.113-1.375-.344a2.44 2.44 0 0 1-.953-1.03c-.219-.458-.328-1.005-.328-1.641 0-.645.109-1.192.328-1.641.226-.457.547-.8.953-1.031.406-.239.863-.36 1.375-.36.55 0 1.008.106 1.375.313.363.21.629.523.797.937l-.453.297h-.094c-.168-.344-.383-.582-.64-.719-.25-.144-.579-.218-.985-.218-.367 0-.695.086-.985.25-.28.168-.511.433-.687.797-.168.355-.25.812-.25 1.375 0 .554.082 1.011.25 1.375.176.355.406.617.687.78.29.157.618.235.985.235.426 0 .773-.094 1.047-.281.27-.188.472-.5.61-.938h.093l.469.235c-.137.523-.399.922-.782 1.203-.375.273-.855.406-1.437.406ZM8.534 36.142c-.418 0-.782-.086-1.094-.265a1.726 1.726 0 0 1-.719-.782c-.168-.343-.25-.757-.25-1.25 0-.488.082-.906.25-1.25.164-.351.406-.617.719-.797a2.191 2.191 0 0 1 1.094-.265c.414 0 .78.09 1.093.265.313.18.551.446.719.797.164.344.25.762.25 1.25 0 .493-.086.907-.25 1.25a1.748 1.748 0 0 1-.719.782c-.312.18-.68.265-1.093.265Zm0-.578c.445 0 .785-.14 1.015-.422.238-.281.36-.71.36-1.297 0-.593-.122-1.023-.36-1.297-.23-.28-.57-.421-1.015-.421-.438 0-.778.14-1.016.421-.242.282-.36.715-.36 1.297 0 .586.118 1.016.36 1.297.238.281.578.422 1.016.422ZM11.865 36.064v-4.437h.61v.687l.093.031c.145-.257.332-.457.563-.593.226-.145.508-.22.844-.22.53 0 .914.141 1.156.423.238.273.36.687.36 1.25v2.86h-.657V33.22c0-.27-.039-.484-.11-.64a.648.648 0 0 0-.312-.36c-.137-.07-.324-.109-.562-.109-.399 0-.72.137-.97.406-.241.262-.358.684-.358 1.266v2.281ZM18.229 36.142c-.281 0-.543-.039-.781-.11a1.848 1.848 0 0 1-.61-.296 1.27 1.27 0 0 1-.344-.438l.391-.406h.094c.133.219.304.387.515.5.207.117.454.172.735.172.32 0 .566-.062.734-.187a.651.651 0 0 0 .266-.547.626.626 0 0 0-.156-.422c-.106-.113-.274-.203-.5-.266l-.75-.187c-.407-.094-.704-.242-.891-.453-.18-.207-.266-.47-.266-.782 0-.238.063-.445.188-.625.125-.175.3-.312.531-.406a2.02 2.02 0 0 1 .828-.156c.406 0 .723.058.953.172.239.117.426.277.563.484l-.375.36h-.078a1.24 1.24 0 0 0-.47-.36 1.534 1.534 0 0 0-.593-.11c-.293 0-.515.055-.672.157a.515.515 0 0 0-.234.453c0 .188.05.34.156.453.113.106.313.188.594.25l.734.188c.383.086.66.234.828.453.176.21.266.476.266.797 0 .261-.062.492-.187.687-.125.2-.313.356-.563.469-.25.102-.555.156-.906.156ZM22.851 36.142c-.386 0-.734-.086-1.047-.265a1.93 1.93 0 0 1-.75-.782c-.18-.351-.265-.77-.265-1.25 0-.488.086-.906.265-1.25.188-.343.438-.601.75-.78.313-.188.66-.282 1.047-.282.469 0 .844.09 1.125.265.282.18.485.418.61.72l-.453.312h-.079a1.338 1.338 0 0 0-.468-.532c-.188-.113-.434-.171-.735-.171-.273 0-.511.07-.718.203-.211.125-.372.32-.485.578-.117.25-.172.562-.172.937s.055.696.172.953c.113.25.274.446.485.579.207.125.445.187.718.187.313 0 .567-.066.766-.203.207-.145.367-.367.484-.672h.078l.438.25a1.689 1.689 0 0 1-.625.89c-.293.212-.672.313-1.14.313ZM25.992 30.767a.504.504 0 0 1-.36-.125.485.485 0 0 1-.125-.344c0-.132.04-.242.125-.328a.483.483 0 0 1 .36-.14c.133 0 .242.047.328.14.094.086.14.196.14.328 0 .137-.046.25-.14.344a.442.442 0 0 1-.328.125Zm-.328 5.297v-4.437h.656v4.437ZM31.32 33.986h-3.048c.008.543.133.945.375 1.203.239.25.57.375 1 .375.313 0 .563-.055.75-.172.196-.113.352-.289.469-.531h.078l.438.25a1.678 1.678 0 0 1-.625.766c-.282.18-.653.265-1.11.265-.437 0-.812-.082-1.125-.25a1.641 1.641 0 0 1-.703-.765c-.168-.344-.25-.77-.25-1.282 0-.507.086-.937.266-1.28.176-.345.414-.599.719-.767.3-.175.648-.265 1.046-.265.57 0 1.016.164 1.329.484.32.324.484.797.484 1.422 0 .25-.008.418-.016.5Zm-.548-.547c-.011-.469-.117-.805-.312-1.016-.2-.218-.485-.328-.86-.328-.386 0-.695.11-.921.328-.22.211-.352.547-.391 1.016ZM32.601 36.064v-4.437h.61v.687l.093.031c.145-.257.332-.457.563-.593.226-.145.507-.22.843-.22.532 0 .914.141 1.157.423.238.273.359.687.359 1.25v2.86h-.656V33.22c0-.27-.04-.484-.11-.64a.648.648 0 0 0-.312-.36c-.137-.07-.324-.109-.563-.109-.398 0-.718.137-.968.406-.243.262-.36.684-.36 1.266v2.281ZM39.933 35.361l.219.469a.96.96 0 0 1-.422.234c-.168.05-.351.078-.547.078-.855 0-1.281-.426-1.281-1.281v-2.703h-.766v-.547h.766v-.938l.656-.109v1.047h1.438v.547h-1.438v2.64c0 .512.223.766.672.766a1 1 0 0 0 .625-.203ZM41.425 30.767a.504.504 0 0 1-.36-.125.485.485 0 0 1-.125-.344c0-.132.04-.242.125-.328a.483.483 0 0 1 .36-.14c.133 0 .242.047.328.14.094.086.14.196.14.328 0 .137-.046.25-.14.344a.442.442 0 0 1-.328.125Zm-.328 5.297v-4.437h.656v4.437ZM45.065 36.142c-.418 0-.782-.086-1.094-.265a1.726 1.726 0 0 1-.719-.782c-.168-.343-.25-.757-.25-1.25 0-.488.082-.906.25-1.25.164-.351.406-.617.719-.797a2.191 2.191 0 0 1 1.094-.265c.414 0 .781.09 1.093.265.313.18.551.446.72.797.163.344.25.762.25 1.25 0 .493-.087.907-.25 1.25a1.748 1.748 0 0 1-.72.782c-.312.18-.68.265-1.093.265Zm0-.578c.445 0 .785-.14 1.015-.422.239-.281.36-.71.36-1.297 0-.593-.121-1.023-.36-1.297-.23-.28-.57-.421-1.015-.421-.438 0-.778.14-1.016.421-.242.282-.36.715-.36 1.297 0 .586.118 1.016.36 1.297.238.281.578.422 1.016.422ZM49.818 36.142c-.511 0-.89-.129-1.14-.39-.242-.27-.36-.66-.36-1.172v-2.953h.657v2.937c0 .68.316 1.016.953 1.016.406 0 .722-.13.953-.39.238-.27.36-.696.36-1.282v-2.281h.655v4.437h-.625v-.703l-.093-.016c-.149.274-.328.477-.547.61-.211.125-.48.187-.813.187ZM54.692 36.142c-.282 0-.543-.039-.782-.11a1.848 1.848 0 0 1-.61-.296 1.27 1.27 0 0 1-.343-.438l.39-.406h.095c.132.219.304.387.515.5.207.117.453.172.735.172.32 0 .566-.062.734-.187a.651.651 0 0 0 .266-.547.626.626 0 0 0-.157-.422c-.105-.113-.273-.203-.5-.266l-.75-.187c-.406-.094-.703-.242-.89-.453-.18-.207-.266-.47-.266-.782 0-.238.063-.445.188-.625.125-.175.3-.312.53-.406a2.02 2.02 0 0 1 .829-.156c.406 0 .723.058.953.172.238.117.426.277.563.484l-.375.36h-.079a1.24 1.24 0 0 0-.468-.36 1.534 1.534 0 0 0-.594-.11c-.293 0-.516.055-.672.157a.515.515 0 0 0-.234.453c0 .188.05.34.156.453.113.106.312.188.594.25l.734.188c.383.086.66.234.828.453.176.21.266.476.266.797 0 .261-.063.492-.188.687-.125.2-.312.356-.562.469-.25.102-.555.156-.906.156ZM60.398 34.111h-.672v-3.938h.672Zm-.344 2a.522.522 0 0 1-.36-.125.504.504 0 0 1-.124-.36c0-.132.039-.242.125-.328a.483.483 0 0 1 .359-.14c.156 0 .273.043.36.125.093.086.14.2.14.344a.483.483 0 0 1-.14.359.496.496 0 0 1-.36.125Zm0 0"/></g></svg>