<svg width="114" height="36" fill="none" xmlns="http://www.w3.org/2000/svg"><path d="M17.693 2.824c8.394 0 15.224 6.83 15.224 15.224s-6.83 15.224-15.224 15.224S2.47 26.442 2.47 18.048 9.296 2.824 17.693 2.824Zm0-2.286c-9.67 0-17.51 7.84-17.51 17.51 0 9.67 7.84 17.51 17.51 17.51 9.67 0 17.51-7.84 17.51-17.51 0-9.67-7.84-17.51-17.51-17.51Z" fill="#fff"/><path d="M13.74 12.453a2.497 2.497 0 0 0 2.498-2.498 2.497 2.497 0 0 0-2.498-2.499 2.497 2.497 0 0 0-2.499 2.499 2.497 2.497 0 0 0 2.498 2.498ZM23.166 10.06a2.141 2.141 0 1 0 .002 4.282 2.141 2.141 0 0 0-.002-4.283ZM22.387 15.35l-.477.506-3.099 3.303-4.072-5.777v-.024h-2.947v14.576h2.947V18.02l2.225 3.113 1.29 1.81 1.908-1.871 1.748-1.705v5.855h2.702V15.35h-2.225ZM51.376 24.12h-1.84v-8.434h-.034l-1.527 6.699h-1.093l-1.527-6.699h-.033v8.434h-1.736V11.975h2.41L47.44 18.5h.033l1.422-6.524h2.482V24.12ZM58.614 13.674h-3.332v3.437h2.69v1.702h-2.69v3.609h3.332v1.702h-5.17V11.979h5.17v1.702-.007ZM66.248 24.12h-1.803l-2.41-8.05H62v8.05h-1.736V11.975h2.047l2.167 7.236h.034v-7.236h1.735V24.12ZM73.278 13.71h-1.962v10.41h-1.84V13.71h-1.961v-1.735h5.76v1.736h.003ZM80.237 14.872v6.351c0 1.908-1.128 3.073-2.968 3.073S74.3 23.134 74.3 21.223v-6.35c0-1.908 1.128-3.073 2.968-3.073s2.968 1.161 2.968 3.072Zm-4.096.017v6.314c0 .902.399 1.388 1.128 1.388.73 0 1.128-.486 1.128-1.388V14.89c0-.901-.399-1.387-1.128-1.387-.73 0-1.128.486-1.128 1.387ZM86.26 24.12l-1.458-5.135h-.851v5.135h-1.84V11.975h2.653c1.979 0 3.056 1.077 3.056 3.073v.868c0 1.283-.452 2.184-1.3 2.67l1.682 5.534H86.26Zm-2.31-10.446v3.609h.747c.885 0 1.283-.47 1.283-1.492v-.625c0-1.023-.398-1.492-1.283-1.492h-.746ZM98.614 24.12h-1.84v-5.29H94.59v5.29h-1.84V11.975h1.84v5.119h2.184v-5.119h1.84V24.12ZM106.268 21.395c0 1.908-1.094 2.897-2.863 2.897s-2.829-.989-2.829-2.897v-9.42h1.769v9.37c0 .884.398 1.215 1.04 1.215.641 0 1.04-.33 1.04-1.215v-9.37h1.84v9.42h.003ZM113.73 15.044v.227c0 1.354-.398 2.15-1.37 2.481v.034c1.144.348 1.63 1.25 1.63 2.846v.416c0 1.995-1.077 3.072-3.052 3.072h-2.708V11.975h2.566c1.908 0 2.931 1.077 2.931 3.073l.003-.004Zm-3.66-1.37v3.312h.574c.885 0 1.25-.453 1.25-1.476v-.398c0-.99-.365-1.442-1.162-1.442h-.658l-.004.004Zm0 5.014v3.73h.797c.885 0 1.283-.469 1.283-1.492v-.678c0-1.078-.398-1.56-1.371-1.56h-.712.003Z" fill="#fff"/></svg>